<?xml version="1.0" encoding="UTF-8" standalone="no"?>
<!-- Created with Inkscape (http://www.inkscape.org/) -->
<svg
   xmlns:dc="http://purl.org/dc/elements/1.1/"
   xmlns:cc="http://web.resource.org/cc/"
   xmlns:rdf="http://www.w3.org/1999/02/22-rdf-syntax-ns#"
   xmlns:svg="http://www.w3.org/2000/svg"
   xmlns="http://www.w3.org/2000/svg"
   xmlns:sodipodi="http://sodipodi.sourceforge.net/DTD/sodipodi-0.dtd"
   xmlns:inkscape="http://www.inkscape.org/namespaces/inkscape"
   width="650"
   height="299"
   id="svg2"
   sodipodi:version="0.32"
   inkscape:version="0.44.1"
   version="1.0"
   sodipodi:docbase="C:\Documents and Settings\jsobral.SANTAREM.000\Desktop"
   sodipodi:docname="Walther MPK.svg">
  <defs
     id="defs4" />
  <sodipodi:namedview
     id="base"
     pagecolor="#ffffff"
     bordercolor="#666666"
     borderopacity="1.0"
     gridtolerance="10000"
     guidetolerance="10"
     objecttolerance="10"
     inkscape:pageopacity="0.0"
     inkscape:pageshadow="2"
     inkscape:zoom="1.492131"
     inkscape:cx="299.69131"
     inkscape:cy="118.80802"
     inkscape:document-units="px"
     inkscape:current-layer="layer1"
     inkscape:window-width="1024"
     inkscape:window-height="708"
     inkscape:window-x="-4"
     inkscape:window-y="-4"
     width="420px"
     height="180px" />
  <metadata
     id="metadata7">
    <rdf:RDF>
      <cc:Work
         rdf:about="">
        <dc:format>image/svg+xml</dc:format>
        <dc:type
           rdf:resource="http://purl.org/dc/dcmitype/StillImage" />
      </cc:Work>
    </rdf:RDF>
  </metadata>
  <g
     inkscape:label="Layer 1"
     inkscape:groupmode="layer"
     id="layer1"
     transform="translate(-147.168,-368.5942)">
    <path
       style="fill:#333;fill-rule:evenodd;stroke:black;stroke-width:1px;stroke-linecap:butt;stroke-linejoin:miter;stroke-opacity:1"
       d="M 566.68925,507.16365 L 571.30718,507.16365 L 568.82061,518.17564 L 567.3997,518.88609 L 565.9788,518.88609 L 566.68925,507.16365 z "
       id="path2225" />
    <path
       style="fill:black;fill-rule:evenodd;stroke:black;stroke-width:1px;stroke-linecap:butt;stroke-linejoin:miter;stroke-opacity:1"
       d="M 322.92332,104.83067 L 309.51396,136.04008 L 283.81257,195.85836 L 286.23536,203.81896 L 298.69542,206.93397 L 324.30777,207.28009 L 328.11502,204.85729 L 354.4196,135.98083 L 322.92332,104.83067 z "
       id="path2257"
       transform="translate(147.168,368.5942)"
       sodipodi:nodetypes="ccccccccc" />
    <path
       style="fill:#333;fill-rule:evenodd;stroke:black;stroke-width:1px;stroke-linecap:butt;stroke-linejoin:miter;stroke-opacity:1"
       d="M 440.60057,441.2035 L 453.88747,410.04799 L 466.25805,407.29897 L 579.42586,410.50616 L 597.29446,411.4225 L 600.50165,451.74139 L 639.90421,452.19956 L 645.40224,455.86492 L 646.31858,459.98844 L 646.31858,463.19563 L 645.86041,467.31915 L 644.4859,470.06817 L 642.65322,472.81718 L 639.90421,474.19169 L 636.23885,474.64986 L 629.36631,475.10803 L 604.62517,476.94071 L 604.13556,458.61393 L 580.3422,454.94858 L 441.97507,450.82506 L 440.60057,441.2035 z "
       id="path2159"
       sodipodi:nodetypes="ccccccccccccccccccccc" />
    <rect
       style="opacity:1;fill:#4d4d4d;fill-opacity:1;fill-rule:nonzero;stroke:black;stroke-width:1.5;stroke-linecap:square;stroke-linejoin:bevel;stroke-miterlimit:4;stroke-dasharray:none;stroke-dashoffset:0;stroke-opacity:1"
       id="rect2161"
       width="76.056099"
       height="24.282972"
       x="466.41632"
       y="58.461124"
       transform="translate(147.168,368.5942)"
       ry="1.8530351" />
    <path
       style="fill:black;fill-rule:evenodd;stroke:black;stroke-width:1px;stroke-linecap:butt;stroke-linejoin:miter;stroke-opacity:1"
       d="M 763.97073,437.18424 L 766.10208,442.15739 L 767.52298,446.4201 L 767.16776,449.61713 L 767.16776,453.52461 L 766.81253,457.43209 L 765.39163,459.91867 L 763.26028,462.76047 L 762.1946,461.69479 L 763.26028,457.07686 L 763.26028,451.39326 L 763.97073,437.18424 z "
       id="path2213" />
    <path
       style="fill:#333;fill-rule:evenodd;stroke:black;stroke-width:1px;stroke-linecap:butt;stroke-linejoin:miter;stroke-opacity:1"
       d="M 493.44832,83.202266 L 618.07037,83.660435 L 617.6122,91.907482 L 616.23769,94.656498 L 498.48818,93.740159 L 498.48818,87.783959 L 497.11368,85.493112 L 493.44832,83.202266 z "
       id="path2163"
       transform="translate(147.168,368.5942)" />
    <rect
       style="opacity:1;fill:black;fill-opacity:1;fill-rule:nonzero;stroke:black;stroke-width:1.34475362;stroke-linecap:square;stroke-linejoin:bevel;stroke-miterlimit:4;stroke-dasharray:none;stroke-dashoffset:0;stroke-opacity:1"
       id="rect2097"
       width="14.816664"
       height="4.736939"
       x="669.86157"
       y="452.177"
       ry="1.4737103" />
    <path
       style="fill:#4d4d4d;fill-rule:evenodd;stroke:black;stroke-width:1px;stroke-linecap:butt;stroke-linejoin:miter;stroke-opacity:1"
       d="M 763.6155,425.4618 L 767.16776,426.8827 L 767.16776,434.69766 L 763.26028,436.11856 L 763.6155,425.4618 z "
       id="path2223" />
    <path
       style="fill:#333;fill-rule:evenodd;stroke:black;stroke-width:1px;stroke-linecap:butt;stroke-linejoin:miter;stroke-opacity:1"
       d="M 686.89142,433.92786 L 721.71228,433.46969 L 721.71228,407.35405 L 759.74033,408.72855 L 763.40569,414.68475 L 763.86386,452.25464 L 686.89142,450.88013 L 686.89142,433.92786 z "
       id="path2085" />
    <path
       style="fill:#1a1a1a;fill-rule:evenodd;stroke:black;stroke-width:1px;stroke-linecap:butt;stroke-linejoin:miter;stroke-opacity:1"
       d="M 327.13287,51.130416 L 573.16977,54.79577 L 579.58415,65.333664 L 327.13287,62.584648 L 326.21653,59.377463 L 326.21653,55.253939 L 327.13287,51.130416 z "
       id="path2073"
       transform="translate(147.168,368.5942)"
       sodipodi:nodetypes="ccccccc" />
    <path
       style="fill:#4d4d4d;fill-rule:evenodd;stroke:black;stroke-width:1px;stroke-linecap:butt;stroke-linejoin:miter;stroke-opacity:1"
       d="M 326.6747,50.672246 L 326.6747,44.257876 L 570.42076,46.090554 L 570.42076,50.214077 L 572.71161,55.253939 L 326.6747,50.672246 z "
       id="path2077"
       transform="translate(147.168,368.5942)" />
    <path
       style="fill:#1a1a1a;fill-rule:evenodd;stroke:black;stroke-width:1px;stroke-linecap:butt;stroke-linejoin:miter;stroke-opacity:1"
       d="M 326.6747,42.883369 L 327.59104,34.178152 L 571.79527,38.255282 L 569.50442,46.548723 L 326.6747,42.883369 z "
       id="path2079"
       transform="translate(147.168,368.5942)"
       sodipodi:nodetypes="ccccc" />
    <path
       style="fill:#1a1a1a;fill-rule:evenodd;stroke:black;stroke-width:1px;stroke-linecap:butt;stroke-linejoin:miter;stroke-opacity:1"
       d="M 579.12598,64.875494 L 589.2057,64.875494 L 580.04232,58.002955 L 575.91879,46.090554 L 575.46062,39.676184 L 571.79527,39.676184 L 570.42076,46.090554 L 574.08612,55.712109 L 579.12598,64.875494 z "
       id="path2081"
       transform="translate(147.168,368.5942)" />
    <path
       style="fill:black;fill-rule:evenodd;stroke:black;stroke-width:1px;stroke-linecap:butt;stroke-linejoin:miter;stroke-opacity:1"
       d="M 737.41527,433.91021 L 723.08679,409.35404 L 722.17046,415.76842 L 727.21032,428.59715 L 737.41527,433.91021 z "
       id="path2083"
       sodipodi:nodetypes="ccccc" />
    <rect
       style="opacity:1;fill:black;fill-opacity:1;fill-rule:nonzero;stroke:black;stroke-width:1.5;stroke-linecap:square;stroke-linejoin:bevel;stroke-miterlimit:4;stroke-dasharray:none;stroke-dashoffset:0;stroke-opacity:1"
       id="rect2093"
       width="16.035925"
       height="5.4980316"
       x="553.01031"
       y="70.373528"
       transform="translate(147.168,368.5942)"
       ry="1.8530351" />
    <rect
       style="opacity:1;fill:black;fill-opacity:1;fill-rule:nonzero;stroke:black;stroke-width:1.5;stroke-linecap:square;stroke-linejoin:bevel;stroke-miterlimit:4;stroke-dasharray:none;stroke-dashoffset:0;stroke-opacity:1"
       id="rect2095"
       width="15.119587"
       height="5.4980316"
       x="575.46063"
       y="70.373528"
       transform="translate(147.168,368.5942)"
       ry="1.8530351" />
    <rect
       style="opacity:1;fill:black;fill-opacity:1;fill-rule:nonzero;stroke:black;stroke-width:1.5;stroke-linecap:square;stroke-linejoin:bevel;stroke-miterlimit:4;stroke-dasharray:none;stroke-dashoffset:0;stroke-opacity:1"
       id="rect2099"
       width="14.203248"
       height="5.0398622"
       x="544.30511"
       y="83.202263"
       transform="translate(147.168,368.5942)"
       ry="1.8530351" />
    <rect
       style="opacity:1;fill:black;fill-opacity:1;fill-rule:nonzero;stroke:black;stroke-width:1.5;stroke-linecap:square;stroke-linejoin:bevel;stroke-miterlimit:4;stroke-dasharray:none;stroke-dashoffset:0;stroke-opacity:1"
       id="rect2101"
       width="14.203248"
       height="5.0398622"
       x="564.92273"
       y="83.202263"
       transform="translate(147.168,368.5942)"
       ry="1.8530351" />
    <rect
       style="opacity:1;fill:black;fill-opacity:1;fill-rule:nonzero;stroke:black;stroke-width:1.5;stroke-linecap:square;stroke-linejoin:bevel;stroke-miterlimit:4;stroke-dasharray:none;stroke-dashoffset:0;stroke-opacity:1"
       id="rect2103"
       width="14.203248"
       height="5.4980316"
       x="586.45667"
       y="83.202263"
       transform="translate(147.168,368.5942)"
       ry="1.8530351" />
    <path
       sodipodi:type="arc"
       style="opacity:1;fill:#666;fill-opacity:1;fill-rule:nonzero;stroke:black;stroke-width:1.5;stroke-linecap:square;stroke-linejoin:bevel;stroke-miterlimit:4;stroke-dasharray:none;stroke-dashoffset:0;stroke-opacity:1"
       id="path2107"
       sodipodi:cx="560.57013"
       sodipodi:cy="130.85187"
       sodipodi:rx="11.225147"
       sodipodi:ry="9.6215553"
       d="M 549.724,133.33098 A 11.225147,9.6215553 0 1 1 550.26698,134.67063"
       transform="matrix(0.292284,0,0,0.293608,587.1896,377.1845)"
       sodipodi:start="2.8809902"
       sodipodi:end="9.0166447"
       sodipodi:open="true" />
    <path
       sodipodi:open="true"
       sodipodi:end="9.0166447"
       sodipodi:start="2.8809902"
       transform="matrix(0.292284,0,0,0.293608,587.6478,387.7224)"
       d="M 549.724,133.33098 A 11.225147,9.6215553 0 1 1 550.26698,134.67063"
       sodipodi:ry="9.6215553"
       sodipodi:rx="11.225147"
       sodipodi:cy="130.85187"
       sodipodi:cx="560.57013"
       id="path2109"
       style="opacity:1;fill:#4d4d4d;fill-opacity:1;fill-rule:nonzero;stroke:black;stroke-width:1.5;stroke-linecap:square;stroke-linejoin:bevel;stroke-miterlimit:4;stroke-dasharray:none;stroke-dashoffset:0;stroke-opacity:1"
       sodipodi:type="arc" />
    <path
       sodipodi:type="arc"
       style="opacity:1;fill:#4d4d4d;fill-opacity:1;fill-rule:nonzero;stroke:black;stroke-width:1.5;stroke-linecap:square;stroke-linejoin:bevel;stroke-miterlimit:4;stroke-dasharray:none;stroke-dashoffset:0;stroke-opacity:1"
       id="path2111"
       sodipodi:cx="560.57013"
       sodipodi:cy="130.85187"
       sodipodi:rx="11.225147"
       sodipodi:ry="9.6215553"
       d="M 549.724,133.33098 A 11.225147,9.6215553 0 1 1 550.26698,134.67063"
       transform="matrix(0.292284,0,0,0.293608,588.106,397.344)"
       sodipodi:start="2.8809902"
       sodipodi:end="9.0166447"
       sodipodi:open="true" />
    <path
       style="fill:#333;fill-rule:evenodd;stroke:black;stroke-width:1px;stroke-linecap:butt;stroke-linejoin:miter;stroke-opacity:1"
       d="M 431.59547,73.580711 L 476.49606,74.03888 L 476.49606,83.265151 C 463.82004,82.78602 453.22674,82.306889 438.46801,81.827758 L 432.96998,78.620573 L 431.59547,73.580711 z "
       id="path2113"
       transform="translate(147.168,368.5942)"
       sodipodi:nodetypes="cccccc" />
    <path
       style="fill:black;fill-rule:evenodd;stroke:black;stroke-width:1px;stroke-linecap:butt;stroke-linejoin:miter;stroke-opacity:1"
       d="M 430.22096,73.153984 L 431.87958,64.401603 C 461.79407,64.554327 461.50786,64.70705 476.322,64.859773 L 479.24507,72.664372 L 482.45226,72.664372 L 481.99409,78.620573 L 479.24507,78.620573 L 477.4124,80.911419 L 476.95423,73.122541 L 430.22096,73.153984 z "
       id="path2115"
       transform="translate(147.168,368.5942)"
       sodipodi:nodetypes="cccccccccc" />
    <path
       style="fill:none;fill-rule:evenodd;stroke:black;stroke-width:1px;stroke-linecap:butt;stroke-linejoin:miter;stroke-opacity:1"
       d="M 326.6747,42.883369 L 326.6747,50.672246"
       id="path2119"
       transform="translate(147.168,368.5942)" />
    <path
       style="fill:none;fill-rule:evenodd;stroke:black;stroke-width:1px;stroke-linecap:butt;stroke-linejoin:miter;stroke-opacity:1"
       d="M 327.59104,62.126479 L 327.59104,63.959156"
       id="path2121"
       transform="translate(147.168,368.5942)" />
    <path
       style="fill:#4d4d4d;fill-rule:evenodd;stroke:black;stroke-width:1px;stroke-linecap:butt;stroke-linejoin:miter;stroke-opacity:1"
       d="M 327.59104,32.803644 L 326.6747,43.341538 L 326.6747,51.588585 L 327.59104,60.751971 L 328.50738,63.959156 L 320.7185,63.959156 L 315.67864,60.293801 L 318.88582,51.588585 L 319.34399,43.341538 L 319.34399,35.55266 L 318.88582,32.803644 L 327.59104,32.803644 z "
       id="path2131"
       transform="translate(147.168,368.5942)" />
    <path
       style="fill:black;fill-rule:evenodd;stroke:black;stroke-width:1px;stroke-linecap:butt;stroke-linejoin:miter;stroke-opacity:1"
       d="M 315.22047,59.377463 L 315.22047,40.134353 L 318.88582,32.803644 L 319.34399,42.883369 L 319.34399,50.214077 L 315.22047,59.377463 z "
       id="path2133"
       transform="translate(147.168,368.5942)" />
    <path
       sodipodi:type="arc"
       style="opacity:1;fill:#333;fill-opacity:1;fill-rule:nonzero;stroke:black;stroke-width:1.5;stroke-linecap:square;stroke-linejoin:bevel;stroke-miterlimit:4;stroke-dasharray:none;stroke-dashoffset:0;stroke-opacity:1"
       id="path2137"
       sodipodi:cx="532.16364"
       sodipodi:cy="72.435287"
       sodipodi:rx="2.5199311"
       sodipodi:ry="2.5199311"
       d="M 529.72879,73.08458 A 2.5199311,2.5199311 0 1 1 529.85068,73.43544"
       transform="translate(147.168,368.5942)"
       sodipodi:start="2.8809902"
       sodipodi:end="9.0166447"
       sodipodi:open="true" />
    <path
       sodipodi:open="true"
       sodipodi:end="9.0166447"
       sodipodi:start="2.8809902"
       transform="translate(123.168,368.5942)"
       d="M 529.72879,73.08458 A 2.5199311,2.5199311 0 1 1 529.85068,73.43544"
       sodipodi:ry="2.5199311"
       sodipodi:rx="2.5199311"
       sodipodi:cy="72.435287"
       sodipodi:cx="532.16364"
       id="path2139"
       style="opacity:1;fill:#1a1a1a;fill-opacity:1;fill-rule:nonzero;stroke:black;stroke-width:1.5;stroke-linecap:square;stroke-linejoin:bevel;stroke-miterlimit:4;stroke-dasharray:none;stroke-dashoffset:0;stroke-opacity:1"
       sodipodi:type="arc" />
    <path
       style="fill:#333;fill-rule:evenodd;stroke:black;stroke-width:1px;stroke-linecap:butt;stroke-linejoin:miter;stroke-opacity:1"
       d="M 437.55167,84.118604 L 454.50393,84.118604 L 456.33661,85.951282 L 456.79478,107.48524 L 470.53986,108.40158 L 470.53986,136.80807 L 471.4562,141.38977 L 436.63533,140.9316 L 438.00984,135.43356 L 437.55167,84.118604 z "
       id="path2141"
       transform="translate(147.168,368.5942)"
       sodipodi:nodetypes="cccccccccc" />
    <path
       style="fill:black;fill-rule:evenodd;stroke:black;stroke-width:1px;stroke-linecap:butt;stroke-linejoin:miter;stroke-opacity:1"
       d="M 468.89759,107.53348 L 496.24995,105.04691 L 476.35733,150.51576 L 469.60804,140.92468 L 468.89759,107.53348 z "
       id="path2227"
       transform="translate(147.168,368.5942)" />
    <path
       style="fill:#333;fill-rule:evenodd;stroke:black;stroke-width:1px;stroke-linecap:butt;stroke-linejoin:miter;stroke-opacity:1"
       d="M 471.4562,109.77608 L 488.40846,109.77608 L 494.36466,107.94341 L 481.07775,139.55709 L 472.8307,140.01526 L 470.99803,136.80807 L 471.4562,109.77608 z "
       id="path2143"
       transform="translate(147.168,368.5942)" />
    <path
       style="fill:black;fill-rule:evenodd;stroke:black;stroke-width:1px;stroke-linecap:butt;stroke-linejoin:miter;stroke-opacity:1"
       d="M 320.26033,85.951282 L 320.26033,81.369589 L 433.88631,83.202266 L 437.55167,85.493112 L 437.55167,136.80807 L 435.71899,141.84793 L 429.76279,145.51329 L 429.30462,142.76427 L 432.05364,137.72441 L 432.05364,88.700297 L 430.67913,86.409451 L 320.26033,85.951282 z "
       id="path2147"
       transform="translate(147.168,368.5942)" />
    <path
       style="fill:#4d4d4d;fill-rule:evenodd;stroke:black;stroke-width:1px;stroke-linecap:butt;stroke-linejoin:miter;stroke-opacity:1"
       d="M 438.92618,144.13878 L 468.24901,144.59695 L 468.24901,289.83661 L 465.95816,288.46211 L 437.55167,287.0876 L 438.92618,144.13878 z "
       id="path2149"
       transform="translate(147.168,368.5942)" />
    <path
       style="fill:#333;fill-rule:evenodd;stroke:black;stroke-width:1px;stroke-linecap:butt;stroke-linejoin:miter;stroke-opacity:1"
       d="M 438.04128,144.59695 L 433.88631,149.17864 L 433.42815,292.58563 L 437.0935,288.00394 L 438.04128,144.59695 z "
       id="path2151"
       transform="translate(147.168,368.5942)"
       sodipodi:nodetypes="ccccc" />
    <path
       style="fill:none;fill-rule:evenodd;stroke:black;stroke-width:1px;stroke-linecap:butt;stroke-linejoin:miter;stroke-opacity:1"
       d="M 435.26082,293.0438 C 435.41355,293.0438 435.56627,293.0438 435.26082,293.0438 z "
       id="path2153"
       transform="translate(147.168,368.5942)" />
    <path
       style="fill:#333;fill-rule:evenodd;stroke:black;stroke-width:1px;stroke-linecap:butt;stroke-linejoin:miter;stroke-opacity:1"
       d="M 433.88631,293.50197 L 469.16535,290.29478 L 467.33267,289.37844 L 438.46801,288.00394 L 433.88631,293.50197 z "
       id="path2155"
       transform="translate(147.168,368.5942)" />
    <path
       style="fill:black;fill-rule:evenodd;stroke:black;stroke-width:1px;stroke-linecap:butt;stroke-linejoin:miter;stroke-opacity:1"
       d="M 434.34448,149.17864 L 429.77851,146.58796 L 438.00984,140.47343 L 474.20521,141.38977 L 479.70324,143.68061 L 475.12155,150.09498 L 468.70718,149.63681 L 468.70718,143.68061 L 438.46801,144.13878 L 434.34448,149.17864 z "
       id="path2157"
       transform="translate(147.168,368.5942)"
       sodipodi:nodetypes="cccccccccc" />
    <rect
       style="opacity:1;fill:olive;fill-opacity:1;fill-rule:nonzero;stroke:black;stroke-width:1.5;stroke-linecap:square;stroke-linejoin:bevel;stroke-miterlimit:4;stroke-dasharray:none;stroke-dashoffset:0;stroke-opacity:1"
       id="rect2165"
       width="104.4626"
       height="4.5816927"
       x="322.55118"
       y="66.25"
       transform="translate(147.168,368.5942)"
       ry="1.4737103" />
    <rect
       ry="1.4737103"
       transform="translate(147.168,368.5942)"
       y="66.25"
       x="322.55118"
       height="4.5816927"
       width="104.4626"
       id="rect2167"
       style="opacity:1;fill:#1a1a1a;fill-opacity:1;fill-rule:nonzero;stroke:black;stroke-width:1.5;stroke-linecap:square;stroke-linejoin:bevel;stroke-miterlimit:4;stroke-dasharray:none;stroke-dashoffset:0;stroke-opacity:1" />
    <rect
       style="opacity:1;fill:#1a1a1a;fill-opacity:1;fill-rule:nonzero;stroke:black;stroke-width:1.5;stroke-linecap:square;stroke-linejoin:bevel;stroke-miterlimit:4;stroke-dasharray:none;stroke-dashoffset:0;stroke-opacity:1"
       id="rect2169"
       width="104.4626"
       height="4.5816927"
       x="469.71918"
       y="440.84421"
       ry="1.4737103" />
    <path
       style="fill:#333;fill-rule:evenodd;stroke:black;stroke-width:1px;stroke-linecap:butt;stroke-linejoin:miter;stroke-opacity:1"
       d="M 272.15256,90.074805 L 269.86171,87.325789 L 269.86171,75.871557 L 271.69439,73.122541 L 301.47539,73.122541 L 301.47539,76.787896 L 288.18848,76.787896 L 288.18848,83.202266 L 295.97736,83.202266 L 295.51919,89.616636 L 272.15256,90.074805 z "
       id="path2171"
       transform="translate(147.168,368.5942)" />
    <path
       style="fill:none;fill-rule:evenodd;stroke:black;stroke-width:1px;stroke-linecap:butt;stroke-linejoin:miter;stroke-opacity:1"
       d="M 270.77805,88.242128 L 273.52706,91.449313"
       id="path2173"
       transform="translate(147.168,368.5942)" />
    <path
       style="fill:none;fill-rule:evenodd;stroke:black;stroke-width:1px;stroke-linecap:butt;stroke-linejoin:miter;stroke-opacity:1"
       d="M 295.51919,90.074805 L 295.51919,83.202266"
       id="path2175"
       transform="translate(147.168,368.5942)" />
    <path
       style="fill:none;fill-rule:evenodd;stroke:black;stroke-width:1px;stroke-linecap:butt;stroke-linejoin:miter;stroke-opacity:1"
       d="M 289.10482,83.202266 L 289.56299,79.078742"
       id="path2177"
       transform="translate(147.168,368.5942)" />
    <path
       style="fill:none;fill-rule:evenodd;stroke:black;stroke-width:1px;stroke-linecap:butt;stroke-linejoin:miter;stroke-opacity:1"
       d="M 298.72638,78.620573 L 298.26821,85.951282"
       id="path2179"
       transform="translate(147.168,368.5942)" />
    <path
       style="fill:none;fill-rule:evenodd;stroke:black;stroke-width:1px;stroke-linecap:butt;stroke-linejoin:miter;stroke-opacity:1"
       d="M 301.47539,90.074805 L 301.01722,91.907482"
       id="path2181"
       transform="translate(147.168,368.5942)" />
    <path
       style="fill:none;fill-rule:evenodd;stroke:black;stroke-width:1px;stroke-linecap:butt;stroke-linejoin:miter;stroke-opacity:1"
       d="M 292.77017,91.907482 L 285.43947,94.656498"
       id="path2183"
       transform="translate(147.168,368.5942)" />
    <path
       style="fill:black;fill-rule:evenodd;stroke:black;stroke-width:1px;stroke-linecap:butt;stroke-linejoin:miter;stroke-opacity:1"
       d="M 270.31988,86.86762 L 273.52706,90.991144 L 295.97736,89.158467 L 295.97736,83.202266 L 289.56299,83.202266 L 290.02116,79.536912 L 299.18454,79.078742 L 299.18454,86.409451 L 301.93356,90.074805 L 301.47539,92.365652 L 293.22834,92.365652 L 285.43947,93.28199 L 271.23622,93.740159 L 269.86171,90.991144 L 270.31988,86.86762 z "
       id="path2187"
       transform="translate(147.168,368.5942)"
       sodipodi:nodetypes="ccccccccccccccc" />
    <path
       style="fill:#4d4d4d;fill-rule:evenodd;stroke:black;stroke-width:1px;stroke-linecap:butt;stroke-linejoin:miter;stroke-opacity:1"
       d="M 466.59095,485.42848 L 465.2065,471.58397 L 461.05314,466.04616 L 462.91148,454.69638 L 582.19265,456.11805 L 582.88488,511.73306 L 576.65484,511.73306 L 571.11704,507.57971 L 564.88701,507.57971 L 553.59306,515.23141 L 540.95188,515.63086 L 528.38016,515.63086 L 521.27678,513.80974 L 517.12343,511.04084 L 512.27785,507.57971 L 507.43227,505.50303 L 499.12556,508.96416 L 491.51107,508.96416 L 466.59095,485.42848 z "
       id="path2201"
       sodipodi:nodetypes="ccccccccccccccccccc" />
    <path
       style="fill:black;fill-rule:evenodd;stroke:black;stroke-width:1px;stroke-linecap:butt;stroke-linejoin:miter;stroke-opacity:1"
       d="M 301.70448,89.158466 L 300.32997,87.325789 L 301.70448,85.493112 L 304.22441,84.576774 L 306.74434,83.202266 L 310.63878,83.43135 L 314.30413,83.88952 L 317.05315,86.180366 L 318.19857,87.554874 L 318.65674,89.158466 L 318.65674,91.220228 L 317.28223,93.052905 L 313.84596,94.656498 L 310.63878,94.427413 L 307.88976,94.427413 L 306.51525,94.427413 L 304.91166,93.28199 L 302.8499,91.449313 L 301.70448,89.158466 z "
       id="path2189"
       transform="translate(147.168,368.5942)" />
    <path
       style="fill:#333;fill-rule:evenodd;stroke:black;stroke-width:1px;stroke-linecap:butt;stroke-linejoin:miter;stroke-opacity:1"
       d="M 299.8718,86.409451 L 299.64271,83.202266 L 299.64271,78.620573 L 299.64271,77.933319 L 303.07898,76.787896 L 305.36983,76.329726 L 309.49335,76.329726 L 311.7842,76.329726 L 315.22047,76.787896 L 318.42765,78.162404 L 320.03125,80.224165 L 320.48942,81.140504 L 319.57308,90.074805 L 318.42765,87.096705 L 315.22047,83.88952 L 306.97342,82.744096 L 299.8718,86.409451 z "
       id="path2191"
       transform="translate(147.168,368.5942)" />
    <path
       sodipodi:type="arc"
       style="opacity:1;fill:black;fill-opacity:1;fill-rule:nonzero;stroke:black;stroke-width:1.5;stroke-linecap:square;stroke-linejoin:bevel;stroke-miterlimit:4;stroke-dasharray:none;stroke-dashoffset:0;stroke-opacity:1"
       id="path2193"
       sodipodi:cx="307.66068"
       sodipodi:cy="64.990036"
       sodipodi:rx="3.6653543"
       sodipodi:ry="3.7798967"
       d="M 304.11908,65.963974 A 3.6653543,3.7798967 0 1 1 304.29638,66.490264"
       transform="translate(147.168,368.5942)"
       sodipodi:start="2.8809902"
       sodipodi:end="9.0166447"
       sodipodi:open="true" />
    <path
       sodipodi:type="arc"
       style="opacity:1;fill:#4d4d4d;fill-opacity:1;fill-rule:nonzero;stroke:black;stroke-width:1.5;stroke-linecap:square;stroke-linejoin:bevel;stroke-miterlimit:4;stroke-dasharray:none;stroke-dashoffset:0;stroke-opacity:1"
       id="path2195"
       sodipodi:cx="485.59637"
       sodipodi:cy="94.101173"
       sodipodi:rx="7.9605966"
       sodipodi:ry="7.6144834"
       d="M 477.90457,96.063142 A 7.9605966,7.6144834 0 1 1 478.28963,97.123336"
       transform="translate(147.168,368.5942)"
       sodipodi:start="2.8809902"
       sodipodi:end="9.0166447"
       sodipodi:open="true" />
    <path
       sodipodi:type="arc"
       style="opacity:1;fill:#1a1a1a;fill-opacity:1;fill-rule:nonzero;stroke:black;stroke-width:1.5;stroke-linecap:square;stroke-linejoin:bevel;stroke-miterlimit:4;stroke-dasharray:none;stroke-dashoffset:0;stroke-opacity:1"
       id="path2197"
       sodipodi:cx="519.51544"
       sodipodi:cy="119.0213"
       sodipodi:rx="3.8072417"
       sodipodi:ry="4.1533546"
       d="M 515.83675,120.09147 A 3.8072417,4.1533546 0 1 1 516.02091,120.66975"
       transform="translate(113.2489,343.6741)"
       sodipodi:start="2.8809902"
       sodipodi:end="9.0166447"
       sodipodi:open="true" />
    <path
       style="fill:#1a1a1a;fill-rule:evenodd;stroke:black;stroke-width:1px;stroke-linecap:butt;stroke-linejoin:miter;stroke-opacity:1"
       d="M 471.82189,474.48143 L 475.28302,480.71147 L 479.43637,487.63372 L 484.97418,491.78708 L 491.89643,494.55598 L 498.81869,494.55598 L 504.3565,493.86376 L 472.51411,572.77749 L 469.05298,574.16194 L 460.05405,574.16194 L 460.05405,567.93191 L 446.20953,567.93191 L 445.51731,571.39304 L 438.59505,571.39304 L 435.13392,568.62414 L 433.74947,563.08633 L 471.82189,474.48143 z "
       id="path2199" />
    <rect
       style="opacity:1;fill:white;fill-opacity:1;fill-rule:nonzero;stroke:black;stroke-width:1.70805657;stroke-linecap:square;stroke-linejoin:bevel;stroke-miterlimit:4;stroke-dasharray:none;stroke-dashoffset:0;stroke-opacity:1"
       id="rect2203"
       width="58.631134"
       height="42.017715"
       x="509.30612"
       y="469.72162"
       ry="21.008858" />
    <path
       style="fill:#333;fill-rule:evenodd;stroke:black;stroke-width:1px;stroke-linecap:butt;stroke-linejoin:miter;stroke-opacity:1"
       d="M 392.49201,101.71565 L 382.80085,101.71565 L 377.95527,110.02236 L 375.87859,115.56017 L 374.84026,121.96326 L 375.18637,127.32801 L 377.26305,130.78914 L 382.80085,136.32694 L 391.79979,142.55698 L 390.41534,137.01917 L 384.87753,132.17359 L 381.4164,128.02023 L 380.03195,124.55911 L 380.205,119.0213 L 382.80085,112.79127 L 386.26198,108.63791 L 392.49201,101.71565 z "
       id="path2205"
       transform="translate(147.168,368.5942)"
       sodipodi:nodetypes="ccccccccccccccccc" />
    <path
       style="fill:#333;fill-rule:evenodd;stroke:black;stroke-width:1px;stroke-linecap:butt;stroke-linejoin:miter;stroke-opacity:1"
       d="M 353.03514,119.36741 C 353.90043,119.36741 357.70767,119.36741 357.70767,119.36741 L 357.36156,98.946752 L 354.76571,94.274228 L 352.34292,92.71672 L 348.70873,92.370607 L 346.80511,93.235889 L 344.38232,94.966453 L 343.17093,96.870074 L 342.99787,99.292865 L 342.99787,104.65761 L 344.55538,106.38818 L 347.67039,108.46486 L 350.26624,108.98403 L 352.68903,110.88765 L 353.03514,119.36741 z "
       id="path2207"
       transform="translate(147.168,368.5942)" />
    <path
       sodipodi:type="arc"
       style="opacity:1;fill:#333;fill-opacity:1;fill-rule:nonzero;stroke:black;stroke-width:1.5;stroke-linecap:square;stroke-linejoin:bevel;stroke-miterlimit:4;stroke-dasharray:none;stroke-dashoffset:0;stroke-opacity:1"
       id="path2209"
       sodipodi:cx="377.17651"
       sodipodi:cy="93.668533"
       sodipodi:rx="3.7207136"
       sodipodi:ry="4.2398829"
       d="M 373.58143,94.760993 A 3.7207136,4.2398829 0 1 1 373.76141,95.351328"
       transform="translate(144.5722,369.8056)"
       sodipodi:start="2.8809902"
       sodipodi:end="9.0166447"
       sodipodi:open="true" />
    <path
       sodipodi:open="true"
       sodipodi:end="9.0166447"
       sodipodi:start="2.8809902"
       transform="translate(191.2974,380.5351)"
       d="M 373.58143,94.760993 A 3.7207136,4.2398829 0 1 1 373.76141,95.351328"
       sodipodi:ry="4.2398829"
       sodipodi:rx="3.7207136"
       sodipodi:cy="93.668533"
       sodipodi:cx="377.17651"
       id="path2211"
       style="opacity:1;fill:#4d4d4d;fill-opacity:1;fill-rule:nonzero;stroke:black;stroke-width:1.5;stroke-linecap:square;stroke-linejoin:bevel;stroke-miterlimit:4;stroke-dasharray:none;stroke-dashoffset:0;stroke-opacity:1"
       sodipodi:type="arc" />
    <path
       style="fill:#4d4d4d;fill-rule:evenodd;stroke:black;stroke-width:1px;stroke-linecap:butt;stroke-linejoin:miter;stroke-opacity:1"
       d="M 778.66633,446.9992 L 785.41561,446.9992 L 786.83651,448.4201 L 786.83651,456.59028 L 785.77083,458.72164 L 777.60065,459.07686 L 778.66633,446.9992 z "
       id="path2217" />
    <path
       style="fill:#1a1a1a;fill-rule:evenodd;stroke:black;stroke-width:1px;stroke-linecap:butt;stroke-linejoin:miter;stroke-opacity:1"
       d="M 764.90215,437.04998 L 775.55891,437.04998 L 779.11117,443.44404 L 779.46639,451.96945 L 778.75594,458.00828 L 776.26937,462.27099 L 775.20369,463.69189 L 762.7708,463.33667 L 767.0335,457.29783 L 767.38873,443.79927 L 764.90215,437.04998 z "
       id="path2215" />
    <path
       style="fill:#1a1a1a;fill-rule:evenodd;stroke:black;stroke-width:1px;stroke-linecap:butt;stroke-linejoin:miter;stroke-opacity:1"
       d="M 592.16082,38.974972 L 612.7639,39.330198 L 601.75191,23.700278 L 597.13398,23.700278 L 597.13398,28.673434 L 596.42353,32.225689 L 592.16082,38.974972 z "
       id="path2219"
       transform="translate(147.168,368.5942)" />
    <path
       style="fill:#4d4d4d;fill-rule:evenodd;stroke:black;stroke-width:1px;stroke-linecap:butt;stroke-linejoin:miter;stroke-opacity:1"
       d="M 537.10088,37.198845 L 552.02035,37.198845 L 550.24422,32.93614 L 547.04719,31.515238 L 542.07403,31.515238 L 539.58745,32.93614 L 537.81133,35.067492 L 537.10088,37.198845 z "
       id="path2221"
       transform="translate(147.168,368.5942)" />
    <path
       style="fill:#4d4d4d;fill-rule:evenodd;stroke:black;stroke-width:1px;stroke-linecap:butt;stroke-linejoin:miter;stroke-opacity:1"
       d="M 477.17244,403.17511 L 492.44714,403.53034 L 491.73668,401.75421 L 491.73668,381.86159 L 488.53966,382.92726 L 483.92172,385.41384 L 479.65902,389.32132 L 477.88289,393.2288 L 476.81722,397.49151 L 477.17244,403.17511 z "
       id="path2231" />
    <path
       style="fill:#4d4d4d;fill-rule:evenodd;stroke:black;stroke-width:1px;stroke-linecap:butt;stroke-linejoin:miter;stroke-opacity:1"
       d="M 493.51281,403.17511 L 495.28894,401.04376 L 495.28894,381.86159 L 501.32777,383.28249 L 505.9457,386.47952 L 509.14273,391.45268 L 510.20841,395.71538 L 510.20841,400.68854 L 510.20841,403.88556 L 493.51281,403.17511 z "
       id="path2233" />
    <path
       style="fill:#1a1a1a;fill-rule:evenodd;stroke:black;stroke-width:1.00234962px;stroke-linecap:butt;stroke-linejoin:miter;stroke-opacity:1"
       d="M 416.93355,446.6449 L 348.40833,447.71056 L 279.52622,451.61798 L 256.32758,443.80314 L 199.22323,448.421 L 191.37139,449.13144 L 189.58688,448.421 L 187.80237,447.00012 L 183.16264,433.50176 L 179.59362,430.66 L 174.59699,430.66 L 169.60036,432.79132 L 167.45894,437.40918 L 166.38824,441.3166 L 167.45894,468.31332 L 167.45894,491.75784 L 164.96063,520.88588 L 161.74851,547.8826 L 158.53639,569.55103 L 158.53639,574.87933 L 160.3209,579.49719 L 167.45894,583.40461 L 181.73503,584.11505 L 186.73166,583.04938 L 298.08513,532.60814 L 308.43529,531.8977 L 315.21644,531.54248 L 320.56997,531.54248 L 325.5666,534.38425 L 369.46556,572.74801 L 379.45883,577.36587 L 406.22648,579.8524 L 431.56654,579.49719 L 443.34431,579.49719 L 439.41839,577.01064 L 438.70458,573.45845 L 438.70458,569.55103 L 384.81236,569.90624 L 378.38812,566.70926 L 359.4723,550.72437 L 340.19959,532.96337 L 326.2804,524.43808 L 318.42855,522.30676 L 308.43529,521.59632 L 299.86964,522.30676 L 292.3747,524.7933 L 184.23334,573.45845 L 173.52628,580.56285 L 167.10204,580.20763 L 162.10541,576.3002 L 160.6778,572.03756 L 162.10541,565.99882 L 169.95726,493.53394 L 169.95726,450.1971 L 168.88655,437.7644 L 172.09867,433.50176 L 177.4522,433.14654 L 181.37813,435.63308 L 183.51954,446.6449 L 187.80237,451.61798 L 196.01112,455.88062 L 200.65084,457.3015 L 262.75182,452.32842 L 271.67437,457.3015 L 279.16932,461.20892 L 290.94709,461.56414 L 416.57665,455.88062 L 416.93355,446.6449 z "
       id="path2235" />
    <path
       style="fill:#333;fill-rule:evenodd;stroke:black;stroke-width:1px;stroke-linecap:butt;stroke-linejoin:miter;stroke-opacity:1"
       d="M 23.44488,211.25931 L 18.471723,210.54886 L 15.274694,207.70706 L 14.209018,203.44435 L 22.379203,128.84701 L 22.734429,70.234812 L 24.865781,65.616881 L 28.773261,64.90643 L 33.035967,65.972106 L 33.035967,67.748234 L 30.904614,69.524361 L 28.773261,71.655714 L 27.707585,74.852743 L 27.707585,82.312477 L 28.418036,127.07088 L 27.352359,143.41125 L 19.892625,204.51003 L 20.247851,208.41751 L 23.44488,211.25931 z "
       id="path2237"
       transform="translate(147.168,368.5942)" />
    <path
       style="fill:#333;fill-rule:evenodd;stroke:black;stroke-width:1px;stroke-linecap:butt;stroke-linejoin:miter;stroke-opacity:1"
       d="M 33.391192,61.709401 L 40.140476,68.458685 L 44.758406,80.181124 L 40.140476,77.694546 L 35.87777,63.840754 L 33.391192,61.709401 z "
       id="path2239"
       transform="translate(147.168,368.5942)" />
    <path
       style="fill:#333;fill-rule:evenodd;stroke:black;stroke-width:1px;stroke-linecap:butt;stroke-linejoin:miter;stroke-opacity:1"
       d="M 291.28487,203.44435 L 300.1655,203.79958 L 300.1655,208.41751 L 291.99532,208.41751 L 291.28487,203.44435 z "
       id="path2241"
       transform="translate(147.168,368.5942)" />
    <path
       style="fill:#1a1a1a;fill-rule:evenodd;stroke:black;stroke-width:1px;stroke-linecap:butt;stroke-linejoin:miter;stroke-opacity:1"
       d="M 299.81028,198.82642 L 312.95362,199.53687 L 312.59839,209.12796 L 310.82227,209.12796 L 307.27001,207.70706 L 303.36253,207.70706 L 301.94163,208.06229 L 299.81028,208.77274 L 299.81028,198.82642 z "
       id="path2243"
       transform="translate(147.168,368.5942)" />
    <path
       style="fill:black;fill-rule:evenodd;stroke:black;stroke-width:1px;stroke-linecap:butt;stroke-linejoin:miter;stroke-opacity:1"
       d="M 312.8365,209.24624 L 310.70399,211.25893 L 301.23118,211.61454 L 300.1655,209.83841 L 300.1655,208.41751 L 305.49388,207.70706 L 307.62524,207.70706 L 312.8365,209.24624 z "
       id="path2247"
       transform="translate(147.168,368.5942)"
       sodipodi:nodetypes="cccccccc" />
    <path
       style="fill:#2b0000;fill-rule:evenodd;stroke:black;stroke-width:1px;stroke-linecap:butt;stroke-linejoin:miter;stroke-opacity:1"
       d="M 274.58927,72.366164 L 281.69378,72.366164 L 281.69378,67.748234 L 274.9445,67.393008 L 274.58927,72.366164 z "
       id="path2249"
       transform="translate(147.168,368.5942)" />
    <path
       sodipodi:type="arc"
       style="opacity:1;fill:#4d4d4d;fill-opacity:1;fill-rule:nonzero;stroke:black;stroke-width:1.5;stroke-linecap:square;stroke-linejoin:bevel;stroke-miterlimit:4;stroke-dasharray:none;stroke-dashoffset:0;stroke-opacity:1"
       id="path2251"
       sodipodi:cx="334.08954"
       sodipodi:cy="133.46494"
       sodipodi:rx="5.1507688"
       sodipodi:ry="5.3283815"
       d="M 329.11269,134.83786 A 5.1507688,5.3283815 0 1 1 329.36184,135.57975"
       transform="translate(145.3919,367.5285)"
       sodipodi:start="2.8809902"
       sodipodi:end="9.0166447"
       sodipodi:open="true" />
    <path
       sodipodi:open="true"
       sodipodi:end="9.0166447"
       sodipodi:start="2.8809902"
       transform="translate(125.144,417.9705)"
       d="M 329.11269,134.83786 A 5.1507688,5.3283815 0 1 1 329.36184,135.57975"
       sodipodi:ry="5.3283815"
       sodipodi:rx="5.1507688"
       sodipodi:cy="133.46494"
       sodipodi:cx="334.08954"
       id="path2253"
       style="opacity:1;fill:#333;fill-opacity:1;fill-rule:nonzero;stroke:black;stroke-width:1.5;stroke-linecap:square;stroke-linejoin:bevel;stroke-miterlimit:4;stroke-dasharray:none;stroke-dashoffset:0;stroke-opacity:1"
       sodipodi:type="arc" />
    <flowRoot
       xml:space="preserve"
       id="flowRoot2267"
       transform="matrix(0.55496,0,0,0.568632,404.2178,441.0963)"><flowRegion
         id="flowRegion2269"><rect
           id="rect2271"
           width="33.226837"
           height="19.382322"
           x="132.21512"
           y="37.338657" /></flowRegion><flowPara
         id="flowPara2273">S</flowPara></flowRoot>    <flowRoot
       xml:space="preserve"
       id="flowRoot2275"
       transform="matrix(0.55496,0,0,0.568632,497.4586,652.9674)"><flowRegion
         id="flowRegion2277"><rect
           id="rect2279"
           width="44.994675"
           height="20.766773"
           x="-11.075612"
           y="-296.31418" /></flowRegion><flowPara
         id="flowPara2281">D</flowPara></flowRoot>    <flowRoot
       xml:space="preserve"
       id="flowRoot2283"
       transform="matrix(0.55496,0,0,0.568632,584.7099,800.9693)"><flowRegion
         id="flowRegion2285"><rect
           id="rect2287"
           width="62.30032"
           height="35.303513"
           x="-134.29179"
           y="-583.58783" /></flowRegion><flowPara
         id="flowPara2289">E</flowPara><flowPara
         id="flowPara2291" /></flowRoot>  </g>
</svg>
